<svg width="55" height="55" viewBox="0 0 55 55" fill="none" xmlns="http://www.w3.org/2000/svg">
<circle cx="27.5" cy="27.5" r="27.5" fill="#FFDE59"/>
<rect x="8" y="8" width="40" height="40" rx="15" fill="#FFDE59"/>
<path d="M37.1668 18.8334H37.1835M19.6668 11.3334H36.3335C40.9359 11.3334 44.6668 15.0643 44.6668 19.6667V36.3334C44.6668 40.9357 40.9359 44.6667 36.3335 44.6667H19.6668C15.0645 44.6667 11.3335 40.9357 11.3335 36.3334V19.6667C11.3335 15.0643 15.0645 11.3334 19.6668 11.3334ZM34.6668 26.95C34.8725 28.3371 34.6356 29.7537 33.9898 30.9984C33.3439 32.2431 32.3221 33.2524 31.0695 33.8828C29.817 34.5133 28.3976 34.7327 27.0131 34.5099C25.6287 34.2872 24.3498 33.6335 23.3582 32.642C22.3667 31.6504 21.7131 30.3715 21.4903 28.9871C21.2675 27.6026 21.4869 26.1832 22.1174 24.9307C22.7478 23.6781 23.7571 22.6563 25.0018 22.0104C26.2465 21.3646 27.6631 21.1277 29.0502 21.3334C30.465 21.5432 31.7749 22.2025 32.7863 23.2139C33.7977 24.2253 34.457 25.5352 34.6668 26.95Z" stroke="#1E1E1E" stroke-width="4" stroke-linecap="round" stroke-linejoin="round"/>
</svg>
